<svg _ngcontent-ng-c908770753="" xmlns="http://www.w3.org/2000/svg" width="216" height="276" viewBox="0 0 216 276" fill="none"><path _ngcontent-ng-c908770753="" d="M4.59998 108.6V227.4C4.59998 251.7 24.2994 271.4 48.6 271.4H167.4C191.7 271.4 211.4 251.701 211.4 227.4V108.6C211.4 84.2995 191.701 64.6 167.4 64.6H48.6C24.2995 64.6 4.59998 84.2995 4.59998 108.6Z" fill="#E6EFFF" stroke="white" stroke-width="8" stroke-linecap="round"></path><path _ngcontent-ng-c908770753="" d="M110.8 0H105.2V130.2H110.8V0Z" fill="#8b5cf6"></path><path _ngcontent-ng-c908770753="" d="M112.2 128.8C112.2 129.631 111.954 130.443 111.492 131.133C111.031 131.824 110.375 132.362 109.607 132.68C108.84 132.998 107.995 133.081 107.181 132.919C106.366 132.757 105.618 132.357 105.03 131.77C104.443 131.182 104.043 130.434 103.881 129.619C103.719 128.805 103.802 127.96 104.12 127.193C104.438 126.425 104.976 125.769 105.667 125.308C106.357 124.846 107.169 124.6 108 124.6C109.114 124.6 110.182 125.042 110.97 125.83C111.757 126.618 112.2 127.686 112.2 128.8Z" fill="#8b5cf6"></path><path _ngcontent-ng-c908770753="" d="M115 135.8C115 137.184 114.589 138.538 113.82 139.689C113.051 140.84 111.958 141.737 110.679 142.267C109.4 142.797 107.992 142.936 106.634 142.665C105.277 142.395 104.029 141.729 103.05 140.75C102.071 139.771 101.405 138.523 101.135 137.166C100.864 135.808 101.003 134.4 101.533 133.121C102.063 131.842 102.96 130.749 104.111 129.98C105.262 129.211 106.616 128.8 108 128.8C109.857 128.8 111.637 129.538 112.95 130.85C114.263 132.163 115 133.943 115 135.8Z" fill="#8b5cf6"></path><path _ngcontent-ng-c908770753="" d="M107.993 137.2C102.846 137.2 97.7496 138.214 92.9945 140.184C88.2394 142.154 83.9188 145.041 80.2794 148.681C76.6399 152.321 73.753 156.643 71.7834 161.399C69.8138 166.155 68.8 171.252 68.8 176.4H147.2C147.196 166.002 143.064 156.032 135.712 148.681C128.359 141.33 118.389 137.2 107.993 137.2Z" fill="grey"></path><path _ngcontent-ng-c908770753="" d="M108 184.8C129.65 184.8 147.2 181.039 147.2 176.4C147.2 171.761 129.65 168 108 168C86.3504 168 68.8 171.761 68.8 176.4C68.8 181.039 86.3504 184.8 108 184.8Z" fill="#F5F5F5"></path><path _ngcontent-ng-c908770753="" d="M131.898 170.477L130.426 170.238C115.579 167.83 100.435 167.91 85.614 170.477L35.2 267.4H180.8L131.898 170.477Z" fill="url(#paint0_linear_4435_14)"></path><defs _ngcontent-ng-c908770753=""><linearGradient _ngcontent-ng-c908770753="" id="paint0_linear_4435_14" x1="108" y1="149.616" x2="108" y2="267.394" gradientUnits="userSpaceOnUse"><stop _ngcontent-ng-c908770753="" stop-color="white"></stop><stop _ngcontent-ng-c908770753="" offset="1" stop-color="white" stop-opacity="0"></stop></linearGradient></defs></svg>